<svg xmlns="http://www.w3.org/2000/svg" viewBox="-20222 -4135 40 40">
  <defs>
    <style>
      .cls-1 {
        fill: #ff6a00;
      }
    </style>
  </defs>
  <path id="Vereinigungsmenge_8" data-name="Vereinigungsmenge 8" class="cls-1" d="M28.015,40H0V0H40V40ZM14.629,7.031a6.722,6.722,0,0,0-3.144.654A4.459,4.459,0,0,0,9.127,9.127a6.321,6.321,0,0,0-1.572,2.227,10.739,10.739,0,0,0-.524,3.275A43.3,43.3,0,0,0,6.9,19.716v.567a43.3,43.3,0,0,0,.131,5.088,6.722,6.722,0,0,0,.654,3.144,7.229,7.229,0,0,0,3.93,3.93,14.6,14.6,0,0,0,3.145.655H20a47.023,47.023,0,0,0,5.371-.131,6.722,6.722,0,0,0,3.144-.654,7.229,7.229,0,0,0,3.93-3.93A14.538,14.538,0,0,0,33.1,25.24V14.5a6.717,6.717,0,0,0-.655-3.144A6.743,6.743,0,0,0,30.873,9a6.743,6.743,0,0,0-2.358-1.572A13.987,13.987,0,0,0,26.368,6.9H20A47.023,47.023,0,0,0,14.629,7.031Zm.262,23.45a7.307,7.307,0,0,1-2.2-.315l-.288-.078a2.155,2.155,0,0,1-1.571-.917c-.086-.115-.173-.224-.257-.329a3.025,3.025,0,0,1-.66-1.111,4.993,4.993,0,0,1-.524-2.489c0-.568-.021-.973-.045-1.464-.039-.762-.086-1.712-.086-3.776a43.787,43.787,0,0,1,.131-5.24,7.329,7.329,0,0,1,.314-2.2l.078-.29A2.953,2.953,0,0,1,10.83,10.83c.115-.086.224-.173.329-.257a3.025,3.025,0,0,1,1.111-.66,4.993,4.993,0,0,1,2.489-.524A43.787,43.787,0,0,1,20,9.257a43.787,43.787,0,0,1,5.24.131,7.329,7.329,0,0,1,2.2.314l.29.078A2.955,2.955,0,0,1,29.17,10.83a2.464,2.464,0,0,1,.917,1.441,4.993,4.993,0,0,1,.524,2.489c0,.568.021.973.045,1.463.039.763.086,1.713.086,3.776a43.787,43.787,0,0,1-.131,5.24,7.329,7.329,0,0,1-.314,2.2l-.078.29A3.948,3.948,0,0,1,29.3,29.17a3.454,3.454,0,0,1-1.442.917l-.287.078a7.326,7.326,0,0,1-2.2.315c-.568,0-.973.021-1.463.045-.763.038-1.714.086-3.777.086A44.106,44.106,0,0,1,14.891,30.48ZM13.318,20A6.681,6.681,0,1,0,20,13.318,6.689,6.689,0,0,0,13.318,20Zm12.053-6.943a1.572,1.572,0,1,0,1.572-1.571A1.521,1.521,0,0,0,25.371,13.056ZM15.676,20A4.323,4.323,0,1,1,20,24.323,4.382,4.382,0,0,1,15.676,20Z" transform="translate(-20222 -4135)"/>
</svg>
