<svg xmlns="http://www.w3.org/2000/svg" viewBox="0 0 40 40"><defs><style>.a{fill:#ff6a00;}</style></defs><title>si_linkedin</title><metadata><?xpacket begin="﻿" id="W5M0MpCehiHzreSzNTczkc9d"?>
<x:xmpmeta xmlns:x="adobe:ns:meta/" x:xmptk="Adobe XMP Core 5.6-c143 79.161356, 2017/09/07-01:11:22        ">
   <rdf:RDF xmlns:rdf="http://www.w3.org/1999/02/22-rdf-syntax-ns#">
      <rdf:Description rdf:about=""
            xmlns:dc="http://purl.org/dc/elements/1.1/">
         <dc:title>
            <rdf:Alt>
               <rdf:li xml:lang="x-default">si_linkedin</rdf:li>
            </rdf:Alt>
         </dc:title>
      </rdf:Description>
   </rdf:RDF>
</x:xmpmeta>
            
<?xpacket end="w"?></metadata>
<path class="a" d="M0,0V40H40V0ZM14,31H9.27V16.6H14ZM11.56,14.12a2.66,2.66,0,0,1-2.74-2.56A2.67,2.67,0,0,1,11.56,9a2.66,2.66,0,0,1,2.74,2.56A2.66,2.66,0,0,1,11.56,14.12ZM31.18,31H26.49V23.4c0-1.94-.79-3.27-2.56-3.27a2.89,2.89,0,0,0-2.65,1.77,2.27,2.27,0,0,0-.18,1.15v8H16.42V16.6H21.1v2a5.06,5.06,0,0,1,4.51-2.38h0c3.18,0,5.48,2.12,5.57,6.62Z"/></svg>