<svg xmlns="http://www.w3.org/2000/svg" viewBox="-20417 -4135 40 40">
  <defs>
    <style>
      .cls-1 {
        fill: #ff6a00;
      }
    </style>
  </defs>
  <path id="Vereinigungsmenge_5" data-name="Vereinigungsmenge 5" class="cls-1" d="M30,40H0V0H40V40ZM15.368,31.135A15.729,15.729,0,0,0,31.251,15.253c0-.217-.005-.429-.012-.641a12.891,12.891,0,0,0,2.784-2.965,11.13,11.13,0,0,1-3.206.881A5.561,5.561,0,0,0,33.27,9.437a11.2,11.2,0,0,1-3.545,1.356,5.587,5.587,0,0,0-9.66,3.823,5.674,5.674,0,0,0,.142,1.274A16.019,16.019,0,0,1,8.7,10.04,5.584,5.584,0,0,0,10.426,17.5,5.542,5.542,0,0,1,7.9,16.8a5.634,5.634,0,0,0,4.48,5.545,5.538,5.538,0,0,1-1.471.2,5.4,5.4,0,0,1-1.051-.1,5.59,5.59,0,0,0,5.214,3.877,11.14,11.14,0,0,1-6.935,2.393,12.365,12.365,0,0,1-1.324-.074A15.921,15.921,0,0,0,15.368,31.135Z" transform="translate(-20417 -4135)"/>
</svg>
