<svg xmlns="http://www.w3.org/2000/svg" viewBox="-20271 -4135 40 40">
  <defs>
    <style>
      .cls-1 {
        fill: #ff6a00;
      }
    </style>
  </defs>
  <path id="Vereinigungsmenge_7" data-name="Vereinigungsmenge 7" class="cls-1" d="M29,40H0V0H40V40ZM9.154,10.608a3.644,3.644,0,0,0-2.562,2.578,39.1,39.1,0,0,0-.591,7,38.075,38.075,0,0,0,.608,7,3.656,3.656,0,0,0,2.563,2.579c2.224.6,11.2.608,11.286.608s9.062-.007,11.3-.608a3.644,3.644,0,0,0,2.562-2.579,39.113,39.113,0,0,0,.591-7,38.067,38.067,0,0,0-.607-7,3.656,3.656,0,0,0-2.563-2.578c-2.224-.6-11.2-.608-11.286-.608S11.395,10.007,9.154,10.608ZM17.5,24.488V15.881l7.557,4.3-7.556,4.3h0Z" transform="translate(-20271 -4135)"/>
</svg>
